<svg xmlns="http://www.w3.org/2000/svg" xmlns:xlink="http://www.w3.org/1999/xlink" width="215.082" height="44.314" viewBox="0 0 215.082 44.314">
  <defs>
    <linearGradient id="linear-gradient" x1="0.219" y1="0.874" x2="0.812" y2="0.405" gradientUnits="objectBoundingBox">
      <stop offset="0" stop-color="#2561de"/>
      <stop offset="1" stop-color="#1d58dd" stop-opacity="0.102"/>
    </linearGradient>
    <linearGradient id="linear-gradient-2" x1="0.817" y1="0.334" x2="0.13" y2="0.784" gradientUnits="objectBoundingBox">
      <stop offset="0" stop-color="#228dde"/>
      <stop offset="1" stop-color="#1d5cdd" stop-opacity="0.102"/>
    </linearGradient>
  </defs>
  <g id="Group_69267" data-name="Group 69267" transform="translate(-8730 -4128.702)">
    <path id="Path_320703" data-name="Path 320703" d="M20.553,0A4.559,4.559,0,0,0,16.79,1.986L1.014,24.874A5.714,5.714,0,0,0,0,28.106v.042a5.732,5.732,0,0,0,2.319,4.591l13.457,9.99a8.044,8.044,0,0,0,9.589,0l13.457-9.99a5.739,5.739,0,0,0,1.3-7.865L24.35,1.986A4.559,4.559,0,0,0,20.587,0Z" transform="translate(8730 4128.702)" fill="url(#linear-gradient)"/>
    <path id="Path_320704" data-name="Path 320704" d="M128.209,0a4.559,4.559,0,0,0-3.763,1.986L108.671,24.874a5.739,5.739,0,0,0,1.3,7.865l13.457,9.99a8.044,8.044,0,0,0,9.589,0l13.457-9.99a5.733,5.733,0,0,0,2.319-4.591v-.042a5.715,5.715,0,0,0-1.014-3.232L132.007,1.986A4.559,4.559,0,0,0,128.244,0Z" transform="translate(8638.084 4128.702)" fill="url(#linear-gradient-2)"/>
    <path id="Union_63" data-name="Union 63" d="M123.525,28.723a1.652,1.652,0,0,1-.23-.022,16.672,16.672,0,0,1-3-.41,13.013,13.013,0,0,1-3.373-1.2,7.146,7.146,0,0,1-2.639-2.324L114,24.35l.426-.269,2.836-1.794.388-.245.277.363a4.531,4.531,0,0,0,2.369,1.4,13.484,13.484,0,0,0,3.282.59,13.3,13.3,0,0,0,1.81-.056,10.118,10.118,0,0,0,1.948-.367,3.786,3.786,0,0,0,1.186-.53,1,1,0,0,0,.326-.4,1.4,1.4,0,0,0,.07-.362v-.029a1.564,1.564,0,0,0-.719-1.518,13.232,13.232,0,0,0-3.673-1.177q-.714-.157-1.4-.314l-.019,0-.018-.006q-.23-.067-.435-.124l-.216-.053q-1.219-.293-2.485-.672a10.217,10.217,0,0,1-2.355-1.037,5.8,5.8,0,0,1-2.325-2.561,5.409,5.409,0,0,1-.44-2.507A5.961,5.961,0,0,1,118.425,7.5a14.907,14.907,0,0,1,10.122-.341,14.231,14.231,0,0,1,2.447,1.156,11.138,11.138,0,0,1,1.058.7l.307.3-.263.339-1.035,1.33L130.007,12.3l-.483.6-.3-.588c-.1-.068-.28-.178-.532-.331a11.622,11.622,0,0,0-1.779-.773,8.527,8.527,0,0,0-2.411-.462,12.433,12.433,0,0,0-2.25.15,6.114,6.114,0,0,0-2.139.7,1.627,1.627,0,0,0-.877,1.293,1.325,1.325,0,0,0,.855,1.237,16.449,16.449,0,0,0,3.7,1.2q.338.08.679.179l1.261.287q1.234.257,2.541.635a10.275,10.275,0,0,1,2.295,1.05,5.811,5.811,0,0,1,2.725,5.391q-.24,3.743-4.426,5.2a15.545,15.545,0,0,1-3.193.569q-1.253.087-1.907.087Q123.632,28.726,123.525,28.723ZM94.941,27.516a11.169,11.169,0,0,1-4.028-3.264,10.963,10.963,0,0,1-2.07-4.646,1.153,1.153,0,0,1-.028-.125l-.026-.053v-.115a.543.543,0,0,0-.01-.1l0-.018,0-.018-.032-.255-.031-.061v-.225c-.013-.108-.024-.208-.035-.3l0-.03V18.1c-.013-.176-.019-.351-.019-.526a10.625,10.625,0,0,1,1.538-5.618,11.359,11.359,0,0,1,4.16-4.026,12.66,12.66,0,0,1,6.127-1.5A12.149,12.149,0,0,1,109.162,9.9a11.224,11.224,0,0,1,2.305,3.508,10.892,10.892,0,0,1,.832,4.249v2.163H93.4a6.435,6.435,0,0,0,2.427,3,7.949,7.949,0,0,0,4.652,1.389,7.591,7.591,0,0,0,5.412-2.219l.368-.352.378.343,2.517,2.409.368.361-.359.37a11.59,11.59,0,0,1-3.953,2.695,12.379,12.379,0,0,1-4.73.9A12.735,12.735,0,0,1,94.941,27.516ZM93.471,15.21l-.074.068-.021.054h14.2A6.191,6.191,0,0,0,105.64,12.7a8.111,8.111,0,0,0-3.808-1.667H101.8l-.044-.006L101.518,11l-.16-.019c-.065,0-.129-.009-.189-.017s-.127-.009-.2-.018H100c-.013,0-.051,0-.115.008l-.105.009c-.043.009-.115.016-.219.025l-.094.008v.078h-.512l-.022.006-.041.006-.038.005-.284.061c-.108.023-.209.046-.3.07l-.071.018h-.021l-.087.028-.357.12c-.242.085-.382.136-.416.151s-.09.037-.139.055a1.757,1.757,0,0,1-.189.088c-.053.025-.1.046-.147.063s-.077.044-.107.062l-.142.092h-.051l-.08.034-.163.1c-.088.055-.171.108-.246.162L96,12.223l-.021.009-.117.1H95.8l-.016.011-.085.073-.156.135H95.5l-.1.085-.027.023-.03.019-.043.037-.055.063-.051.029-.034.044-.073.047c-.021.019-.021.019-.043.037l-.023.026L95,12.985l-.043.036-.043.038-.152.163-.018.019-.021.018-.022.018-.025.022c-.021.022-.067.075-.139.157l-.053.062-.129.222h-.06l-.088.1c-.029.045-.058.089-.087.131l-.014.018-.066.087L94,14.134v.019l-.089.115-.03.071-.051.059a.411.411,0,0,0-.03.042l-.05.1-.016.014-.025.044-.072.122v.386h-.166ZM89.163,28.723H83.6l-.151-.124L72.379,19.544v9.179H67.994V0h4.384V15.609L83.454,6.554l.151-.124h6.9l-1.02.859L76.563,17.576,89.486,27.864l1.02.859Zm-26.27,0H59V26.261a11.925,11.925,0,0,1-2.855,1.607,12.289,12.289,0,0,1-4.585.855,12.6,12.6,0,0,1-6.128-1.513,11.438,11.438,0,0,1-4.158-4.034,10.591,10.591,0,0,1-1.538-5.6,10.626,10.626,0,0,1,1.538-5.618,11.349,11.349,0,0,1,4.16-4.026,12.654,12.654,0,0,1,6.126-1.5,12.289,12.289,0,0,1,4.585.856A11.946,11.946,0,0,1,59,8.893V6.43h4.385V28.723ZM47.808,11.833a7.263,7.263,0,0,0-2.718,2.4,6.245,6.245,0,0,0,0,6.673,7.239,7.239,0,0,0,2.717,2.411,8.383,8.383,0,0,0,7.521,0,7.265,7.265,0,0,0,2.709-2.412,6.245,6.245,0,0,0,0-6.673,7.289,7.289,0,0,0-2.709-2.4,8.383,8.383,0,0,0-7.521,0ZM35.732,28.722H31.864V16.3A5.027,5.027,0,0,0,30.2,12.516a6.015,6.015,0,0,0-8.114,0A5,5,0,0,0,20.4,16.3V28.722H15.847V16.3a5,5,0,0,0-1.684-3.784A5.743,5.743,0,0,0,10.1,10.942,5.715,5.715,0,0,0,6.05,12.516,5.022,5.022,0,0,0,4.385,16.3V28.722H0V6.43H4.385V8.163a10.02,10.02,0,0,1,2.16-1.109A10.148,10.148,0,0,1,10.1,6.43a10.048,10.048,0,0,1,4.831,1.185,10.389,10.389,0,0,1,3.189,2.622A10.593,10.593,0,0,1,21.31,7.615,9.995,9.995,0,0,1,26.132,6.43a10.37,10.37,0,0,1,5.179,1.317,10.048,10.048,0,0,1,3.577,3.514,9.278,9.278,0,0,1,1.34,4.9V28.722Z" transform="translate(8811.288 4132.444)" fill="#fff" stroke="rgba(0,0,0,0)" stroke-width="1"/>
  </g>
</svg>
